<mxfile host="app.diagrams.net" agent="Mozilla/5.0 (X11; Linux x86_64) AppleWebKit/537.36 (KHTML, like Gecko) Chrome/125.0.0.0 Safari/537.36" version="26.0.16">
  <diagram name="第 1 页" id="5zONzc2Vu3bdCyayTcY7">
    <mxGraphModel dx="997" dy="499" grid="1" gridSize="10" guides="1" tooltips="1" connect="1" arrows="1" fold="1" page="1" pageScale="1" pageWidth="827" pageHeight="1169" math="0" shadow="0">
      <root>
        <mxCell id="0" />
        <mxCell id="1" parent="0" />
        <mxCell id="EjwQ0-EaP-7J2fu1__eI-2" value="&lt;b&gt;&lt;font style=&quot;font-size: 18px;&quot;&gt;拓展数据规模&lt;/font&gt;&lt;/b&gt;" style="text;html=1;align=center;verticalAlign=middle;whiteSpace=wrap;rounded=0;" vertex="1" parent="1">
          <mxGeometry x="260" y="530" width="130" height="30" as="geometry" />
        </mxCell>
        <mxCell id="EjwQ0-EaP-7J2fu1__eI-3" value="" style="triangle;whiteSpace=wrap;html=1;direction=south;fillColor=#eeeeee;strokeColor=#36393d;gradientDirection=north;" vertex="1" parent="1">
          <mxGeometry x="350" y="404" width="260" height="180" as="geometry" />
        </mxCell>
        <mxCell id="EjwQ0-EaP-7J2fu1__eI-7" value="" style="endArrow=classic;html=1;rounded=0;strokeColor=#666666;strokeWidth=3;" edge="1" parent="1">
          <mxGeometry width="50" height="50" relative="1" as="geometry">
            <mxPoint x="248" y="574" as="sourcePoint" />
            <mxPoint x="248" y="514" as="targetPoint" />
          </mxGeometry>
        </mxCell>
        <mxCell id="EjwQ0-EaP-7J2fu1__eI-8" value="&lt;b&gt;&lt;font style=&quot;font-size: 18px;&quot;&gt;拓展模型参数&lt;/font&gt;&lt;/b&gt;" style="text;html=1;align=center;verticalAlign=middle;whiteSpace=wrap;rounded=0;" vertex="1" parent="1">
          <mxGeometry x="559" y="527" width="130" height="30" as="geometry" />
        </mxCell>
        <mxCell id="EjwQ0-EaP-7J2fu1__eI-9" value="" style="endArrow=classic;html=1;rounded=0;strokeColor=#666666;strokeWidth=3;" edge="1" parent="1">
          <mxGeometry width="50" height="50" relative="1" as="geometry">
            <mxPoint x="699" y="573" as="sourcePoint" />
            <mxPoint x="699" y="513" as="targetPoint" />
          </mxGeometry>
        </mxCell>
        <mxCell id="EjwQ0-EaP-7J2fu1__eI-10" value="&lt;b&gt;&lt;font style=&quot;font-size: 16px;&quot;&gt;模型能力&lt;/font&gt;&lt;/b&gt;" style="text;html=1;align=center;verticalAlign=middle;whiteSpace=wrap;rounded=0;" vertex="1" parent="1">
          <mxGeometry x="435" y="470" width="90" height="30" as="geometry" />
        </mxCell>
        <mxCell id="EjwQ0-EaP-7J2fu1__eI-11" value="&lt;b&gt;限制条件：算力，训练时间和成本&lt;/b&gt;" style="text;html=1;align=center;verticalAlign=middle;whiteSpace=wrap;rounded=0;" vertex="1" parent="1">
          <mxGeometry x="367.5" y="360" width="230" height="30" as="geometry" />
        </mxCell>
        <mxCell id="EjwQ0-EaP-7J2fu1__eI-12" value="&lt;b&gt;&lt;font style=&quot;font-size: 18px;&quot;&gt;Scaling Law (拓展法则）&lt;/font&gt;&lt;/b&gt;" style="text;html=1;align=center;verticalAlign=middle;whiteSpace=wrap;rounded=0;" vertex="1" parent="1">
          <mxGeometry x="367.5" y="310" width="225" height="30" as="geometry" />
        </mxCell>
      </root>
    </mxGraphModel>
  </diagram>
</mxfile>
